<svg xmlns="http://www.w3.org/2000/svg" version="1.1" xmlns:xlink="http://www.w3.org/1999/xlink" xmlns:svgjs="http://svgjs.dev/svgjs" width="71.21" height="71.21"><svg xmlns="http://www.w3.org/2000/svg" viewBox="0 0 71.21 71.21"><defs fill="#55679c000"><style>.cls-1{fill:none;stroke:#55679c;stroke-linecap:round;stroke-linejoin:round;stroke-width:3px;}</style></defs><title>Asset 23</title><g id="SvgjsG1003" data-name="Layer 2"><g id="SvgjsG1002" data-name="Layer 2"><path class="cls-1" d="M31.87,28.14a.88.88,0,0,0-1.34.74V42.33a.87.87,0,0,0,1.34.74l10.71-6.72a.88.88,0,0,0,0-1.48Z" fill="#55679c000"></path><circle class="cls-1" cx="35.61" cy="35.61" r="15.05" fill="#55679c000"></circle><line class="cls-1" x1="35.61" y1="20.55" x2="35.61" y2="10.28" fill="#55679c000"></line><circle class="cls-1" cx="35.61" cy="5.89" r="4.39" fill="#55679c000"></circle><line class="cls-1" x1="35.61" y1="50.66" x2="35.61" y2="60.94" fill="#55679c000"></line><circle class="cls-1" cx="35.61" cy="65.32" r="4.39" fill="#55679c000"></circle><line class="cls-1" x1="50.66" y1="35.61" x2="60.94" y2="35.61" fill="#55679c000"></line><circle class="cls-1" cx="65.32" cy="35.61" r="4.39" fill="#55679c000"></circle><line class="cls-1" x1="20.55" y1="35.61" x2="10.28" y2="35.61" fill="#55679c000"></line><circle class="cls-1" cx="5.89" cy="35.61" r="4.39" fill="#55679c000"></circle><line class="cls-1" x1="46.25" y1="24.96" x2="53.52" y2="17.7" fill="#55679c000"></line><circle class="cls-1" cx="56.62" cy="14.59" r="4.39" fill="#55679c000"></circle><line class="cls-1" x1="24.96" y1="46.25" x2="17.7" y2="53.52" fill="#55679c000"></line><circle class="cls-1" cx="14.59" cy="56.62" r="4.39" fill="#55679c000"></circle><line class="cls-1" x1="46.25" y1="46.25" x2="53.52" y2="53.52" fill="#55679c000"></line><circle class="cls-1" cx="56.62" cy="56.62" r="4.39" fill="#55679c000"></circle><line class="cls-1" x1="24.96" y1="24.96" x2="17.7" y2="17.7" fill="#55679c000"></line><circle class="cls-1" cx="14.59" cy="14.59" r="4.39" fill="#55679c000"></circle></g></g></svg><style>@media (prefers-color-scheme: light) { :root { filter: none; } }
@media (prefers-color-scheme: dark) { :root { filter: none; } }
</style></svg>